<svg xmlns="http://www.w3.org/2000/svg" xmlns:xlink="http://www.w3.org/1999/xlink" width="500" zoomAndPan="magnify" viewBox="0 0 375 374.999991" height="500" preserveAspectRatio="xMidYMid meet" version="1.0"><path stroke-linecap="butt" transform="matrix(0.732468, 0, 0, 0.732468, 9.205011, 114.960256)" fill="none" stroke-linejoin="miter" d="M 217.802375 79.627915 C 229.828284 -10.857053 201.686056 -44.401607 119.541896 -44.401607 L 37.477731 -44.401607 L 3.282551 217.000597 L 88.781167 217.000597 C 170.839999 217.000597 204.05924 182.800085 216.08515 92.309783 Z M 73.971433 162.017393 L 94.098165 10.576264 L 109.153217 10.576264 C 152.761137 10.576264 159.139402 34.388098 153.08645 79.627915 L 151.44922 92.309783 C 145.396268 137.554934 135.98886 162.017393 92.460935 162.017393 Z M 484.894888 -44.401607 L 424.51469 -44.401607 L 412.158135 49.437816 L 407.411767 99.674653 L 354.151121 -44.401607 L 287.142008 -44.401607 L 252.946828 217.000597 L 313.241698 217.000597 L 325.352935 123.155841 L 330.344621 72.919004 L 383.685262 217.000597 L 450.694375 217.000597 Z M 484.894888 -44.401607 " stroke="#94dd26" stroke-width="9.634787" stroke-opacity="1" stroke-miterlimit="4"/></svg>